<svg xmlns="http://www.w3.org/2000/svg" viewBox="0 0 120 120" width="120" height="120">
  <!-- Placeholder nugget mascot: shrug. Replace with commissioned art (same filename). -->
  <defs>
    <radialGradient id="nug" cx="42%" cy="36%" r="75%">
      <stop offset="0%" stop-color="#f8c87a"/>
      <stop offset="62%" stop-color="#e8a94f"/>
      <stop offset="100%" stop-color="#c97f2e"/>
    </radialGradient>
  </defs>
  <ellipse cx="60" cy="106" rx="30" ry="6" fill="#000" opacity="0.18"/>
  <!-- shrug arms -->
  <path d="M28 60 Q14 54 12 42" fill="none" stroke="#c97f2e" stroke-width="9" stroke-linecap="round"/>
  <circle cx="12" cy="41" r="6.5" fill="#e8a94f"/>
  <path d="M92 60 Q106 54 108 42" fill="none" stroke="#c97f2e" stroke-width="9" stroke-linecap="round"/>
  <circle cx="108" cy="41" r="6.5" fill="#e8a94f"/>
  <!-- body -->
  <path d="M60 16 C78 14 94 26 96 44 C104 50 102 64 94 70 C94 88 80 100 60 100 C40 100 26 88 26 70 C18 64 16 50 24 44 C26 26 42 14 60 16 Z" fill="url(#nug)"/>
  <circle cx="40" cy="34" r="2.4" fill="#b06f24" opacity="0.5"/>
  <circle cx="78" cy="78" r="2.8" fill="#b06f24" opacity="0.5"/>
  <circle cx="72" cy="28" r="1.8" fill="#b06f24" opacity="0.5"/>
  <!-- face: puzzled -->
  <circle cx="48" cy="54" r="4.4" fill="#2b1c0e"/>
  <circle cx="70" cy="54" r="4.4" fill="#2b1c0e"/>
  <circle cx="49.5" cy="52.5" r="1.4" fill="#fff"/>
  <circle cx="71.5" cy="52.5" r="1.4" fill="#fff"/>
  <!-- raised brow -->
  <path d="M64 42 Q70 38 76 42" fill="none" stroke="#2b1c0e" stroke-width="2.6" stroke-linecap="round"/>
  <!-- flat wiggle mouth -->
  <path d="M50 70 Q55 66 60 70 Q65 74 68 70" fill="none" stroke="#2b1c0e" stroke-width="3.2" stroke-linecap="round"/>
</svg>
