<svg xmlns="http://www.w3.org/2000/svg" viewBox="0 0 120 120" width="120" height="120">
  <!-- Placeholder nugget mascot: diver (loading). Replace with commissioned art (same filename). -->
  <defs>
    <radialGradient id="nug" cx="42%" cy="36%" r="75%">
      <stop offset="0%" stop-color="#f8c87a"/>
      <stop offset="62%" stop-color="#e8a94f"/>
      <stop offset="100%" stop-color="#c97f2e"/>
    </radialGradient>
  </defs>
  <!-- bubbles -->
  <circle cx="92" cy="26" r="4" fill="none" stroke="#7dd3fc" stroke-width="2" opacity="0.8"/>
  <circle cx="100" cy="14" r="2.6" fill="none" stroke="#7dd3fc" stroke-width="1.8" opacity="0.6"/>
  <circle cx="86" cy="12" r="1.8" fill="none" stroke="#7dd3fc" stroke-width="1.5" opacity="0.5"/>
  <!-- body -->
  <path d="M60 16 C78 14 94 26 96 44 C104 50 102 64 94 70 C94 88 80 100 60 100 C40 100 26 88 26 70 C18 64 16 50 24 44 C26 26 42 14 60 16 Z" fill="url(#nug)"/>
  <circle cx="38" cy="80" r="2.4" fill="#b06f24" opacity="0.5"/>
  <circle cx="80" cy="80" r="2.4" fill="#b06f24" opacity="0.5"/>
  <!-- dive mask -->
  <rect x="36" y="42" width="48" height="24" rx="12" fill="#0e3a52" opacity="0.25"/>
  <rect x="36" y="42" width="48" height="24" rx="12" fill="none" stroke="#0e3a52" stroke-width="3.4"/>
  <line x1="84" y1="52" x2="98" y2="50" stroke="#0e3a52" stroke-width="3.4" stroke-linecap="round"/>
  <!-- eyes inside mask -->
  <circle cx="50" cy="54" r="4" fill="#2b1c0e"/>
  <circle cx="69" cy="54" r="4" fill="#2b1c0e"/>
  <circle cx="51.4" cy="52.6" r="1.3" fill="#fff"/>
  <circle cx="70.4" cy="52.6" r="1.3" fill="#fff"/>
  <!-- snorkel -->
  <path d="M98 50 V28 Q98 20 106 20" fill="none" stroke="#ef8354" stroke-width="5" stroke-linecap="round"/>
  <!-- happy mouth -->
  <path d="M52 76 Q60 82 68 76" fill="none" stroke="#2b1c0e" stroke-width="3.2" stroke-linecap="round"/>
</svg>
